<svg xmlns="http://www.w3.org/2000/svg" viewBox="0 0 128 128" role="img" aria-labelledby="title desc">
  <title id="title">GitHub</title>
  <desc id="desc">The GitHub mark on a light rounded tile for visibility in light and dark themes.</desc>
  <rect x="3" y="3" width="122" height="122" rx="24" fill="#fff" stroke="#d0d7de" stroke-width="6" />
  <path fill="#181616" fill-rule="evenodd" clip-rule="evenodd" d="M64 12c-28.72 0-52 23.28-52 52 0 22.98 14.9 42.47 35.56 49.35 2.6.48 3.55-1.13 3.55-2.5 0-1.24-.05-5.34-.07-9.68-14.47 3.15-17.52-6.14-17.52-6.14-2.37-6.01-5.77-7.61-5.77-7.61-4.72-3.23.36-3.16.36-3.16 5.22.37 7.97 5.36 7.97 5.36 4.64 7.95 12.16 5.65 15.13 4.32.47-3.36 1.82-5.66 3.3-6.95-11.55-1.31-23.69-5.77-23.69-25.7 0-5.68 2.03-10.32 5.36-13.96-.54-1.31-2.32-6.6.5-13.76 0 0 4.37-1.4 14.3 5.33A49.8 49.8 0 0 1 64 37.37c4.42.02 8.87.6 13.03 1.75 9.92-6.73 14.28-5.33 14.28-5.33 2.83 7.16 1.05 12.45.51 13.76 3.34 3.64 5.35 8.28 5.35 13.96 0 19.98-12.16 24.37-23.74 25.67 1.87 1.61 3.53 4.78 3.53 9.63 0 6.96-.06 12.56-.06 14.28 0 1.38.94 3 3.57 2.5C101.11 106.7 116 87.22 116 64c0-28.72-23.28-52-52-52Z" />
</svg>
